<svg xmlns="http://www.w3.org/2000/svg" xmlns:xlink="http://www.w3.org/1999/xlink" viewBox="0 0 1046.09 654.22"><defs><style>.cls-1,.cls-3,.cls-6,.cls-8,.cls-9{fill:none;}.cls-2{clip-path:url(#clip-path);}.cls-3,.cls-6{stroke:#fff;}.cls-3,.cls-6,.cls-8,.cls-9{stroke-miterlimit:10;}.cls-3,.cls-8{stroke-width:125px;}.cls-4{clip-path:url(#clip-path-2);}.cls-5{clip-path:url(#clip-path-3);}.cls-6,.cls-9{stroke-width:130px;}.cls-7{clip-path:url(#clip-path-4);}.cls-8,.cls-9{stroke:#231f20;}</style><clipPath id="clip-path"><path class="cls-1" d="M730.11,64.85l71.3,226.32,22.3,87.11L846,291.17,912.62,64.85h119.13L870.66,511.43H773.24L611,64.85Z"/></clipPath><clipPath id="clip-path-2"><path class="cls-1" d="M454.43,407A171.81,171.81,0,1,0,282.62,235.14,171.82,171.82,0,0,0,454.43,407Zm0-101.92a69.89,69.89,0,1,1,69.89-69.89A69.89,69.89,0,0,1,454.43,305Z"/></clipPath><clipPath id="clip-path-3"><rect class="cls-1" x="272.14" y="64.85" width="113.02" height="446.58"/></clipPath><clipPath id="clip-path-4"><path class="cls-1" d="M79.09,525.81q-18,16.73-43.87,27l24.35,56.63q27.29,0,62.65-14.07t63.67-42.94a133.36,133.36,0,0,0,36.24-69q6.16-30.77,6.16-84.12,0-21.1-.29-32.24l-.29-35.76V64.85H115V333q0,65.14-1.61,94.63t-7.78,51.5Q97.13,509.08,79.09,525.81Z"/></clipPath></defs><title>jpv5</title><g id="base"><g class="cls-2"><polyline class="cls-3" points="662.03 26.5 682.17 90.22 801.09 458.68 838.71 458.68 972.97 71 984.83 12.4"/></g><g class="cls-4"><path class="cls-3" d="M337.17,230.2A119.56,119.56,0,1,1,456.73,349.76,119.56,119.56,0,0,1,337.17,230.2"/></g><g class="cls-5"><line class="cls-6" x1="327.94" y1="511.43" x2="327.94" y2="64.85"/></g><g id="jb"><g class="cls-7"><polyline class="cls-3" points="170.75 29.69 173.94 337.14 168.71 412.58 164.71 481.58 121.71 543.59 35.22 602.59"/></g></g></g><g id="animate"><g id="v"><g class="cls-2"><polyline #v class="cls-8" points="662.03 26.5 682.17 90.22 801.09 458.68 838.71 458.68 972.97 71 984.83 12.4"/></g></g><g #p2 id="p2"><g class="cls-4"><path #p2 class="cls-8" d="M337.17,230.2A119.56,119.56,0,1,1,456.73,349.76,119.56,119.56,0,0,1,337.17,230.2"/></g></g><g id="p1"><g class="cls-5"><line #p1 class="cls-9" x1="327.94" y1="511.43" x2="327.94" y2="64.85"/></g></g><g  id="j"><g class="cls-7"><polyline #j class="cls-8" points="170.75 29.69 173.94 337.14 168.71 412.58 164.71 481.58 121.71 543.59 35.22 602.59"/></g></g></g></svg>